<svg xmlns="http://www.w3.org/2000/svg" viewBox="0 0 178.99 173.33"><defs><style>.cls-1{fill:#476c86;}</style></defs><g id="Layer_4" data-name="Layer 4"><path class="cls-1" d="M164.59,57.09l9.64-28.92A2.45,2.45,0,0,0,171.91,25H139.38V15.52a2.45,2.45,0,0,0-2.45-2.45H105.71a2.45,2.45,0,1,0,0,4.9h28.78V72.46H83.3V18h11a2.45,2.45,0,1,0,0-4.9h-11V8.93a5.76,5.76,0,0,0-5.75-5.75H71A5.76,5.76,0,0,0,65.2,8.93V84H58.88a15.8,15.8,0,0,0-9.43,3.16l-2.67,2a2.45,2.45,0,0,0,1.47,4.41,2.4,2.4,0,0,0,1.48-.5l2.68-2a10.79,10.79,0,0,1,6.47-2.17h6.33v8.3H59.73a2.45,2.45,0,0,0,0,4.9H93.89a4.27,4.27,0,0,1,4.3,4,4.15,4.15,0,0,1-4.14,4.3H67.65a2.45,2.45,0,1,0,0,4.9h32.84a4.26,4.26,0,0,1,4.3,4,4.14,4.14,0,0,1-4.15,4.3h-33a2.45,2.45,0,0,0,0,4.9h26.4a4.15,4.15,0,0,1,4.14,4.31,4.26,4.26,0,0,1-4.3,4H67.65a2.45,2.45,0,0,0,0,4.9h19.8A4.15,4.15,0,0,1,91.6,146a4.27,4.27,0,0,1-4.31,4L22.6,150V105.07h6A15.68,15.68,0,0,0,38,101.91L40.61,100a2.45,2.45,0,0,0-3-3.91L35.09,98a10.79,10.79,0,0,1-6.47,2.17h-19a2.45,2.45,0,0,0-2.45,2.45v49.84a2.45,2.45,0,0,0,2.45,2.45l55.61,0v9.75A5.76,5.76,0,0,0,71,170.39h6.6a5.76,5.76,0,0,0,5.75-5.75v-9.75h4a9.21,9.21,0,0,0,9.2-8.72,9,9,0,0,0-1.06-4.61,9.17,9.17,0,0,0,7.66-8.59,9,9,0,0,0-1-4.58,9,9,0,0,0,0-17.87,9,9,0,0,0,1.06-4.6,9.1,9.1,0,0,0-9.2-8.72H83.3V77.36h16.88v9.42a2.44,2.44,0,0,0,2.45,2.45h40.25a2.45,2.45,0,1,0,0-4.9H117.19l20.55-7.11a2.46,2.46,0,0,0,1.64-2.39v-45h29.13l-8.82,26.47a2.42,2.42,0,0,0,0,1.55l8.82,26.47h-14.2a2.45,2.45,0,1,0,0,4.89h17.6A2.45,2.45,0,0,0,174.23,86ZM12,105.07H17.7V150H12ZM78.4,164.64a.85.85,0,0,1-.85.85H71a.85.85,0,0,1-.85-.85v-9.75h8.3ZM70.1,97.2V8.93A.85.85,0,0,1,71,8.08h6.6a.85.85,0,0,1,.85.85V97.2Zm52.28-19.84-17.3,6v-6Z"/></g></svg>