<svg xmlns="http://www.w3.org/2000/svg" viewBox="0 0 136.77 163.24"><defs><style>.cls-1{fill:#476c86;}</style></defs><g id="Layer_4" data-name="Layer 4"><path class="cls-1" d="M63.47,28.84H25.67A5.7,5.7,0,0,0,20,34.53v5.3a5.63,5.63,0,0,0,1.65,4v0a5.64,5.64,0,0,0,4,1.67H63.49A5.66,5.66,0,0,0,67.39,44l.11-.11a5.7,5.7,0,0,0,1.67-4V34.54A5.71,5.71,0,0,0,63.47,28.84Zm2.15,11A2.09,2.09,0,0,1,65,41.34a2.14,2.14,0,0,1-1.45.56H25.67a2.15,2.15,0,0,1-2.13-2.14l0-5.22A2.16,2.16,0,0,1,24.15,33a2.13,2.13,0,0,1,1.51-.63H63.49a2.15,2.15,0,0,1,2.13,2.14Z"/><path class="cls-1" d="M131.52,147.93l-23.66-24.3a36.77,36.77,0,0,0-10.15-51l-.37-.25V24.83A21.48,21.48,0,0,0,82,4.27a19,19,0,0,0-6.08-.88h-64a8.74,8.74,0,0,0-8.64,8.68V117.13A9.6,9.6,0,0,0,6.07,124v0a9.6,9.6,0,0,0,6.86,2.82H49.12A36.76,36.76,0,0,0,97,134.19l23.86,24.4a7.57,7.57,0,0,0,10.56,0l.1-.11A7.56,7.56,0,0,0,131.52,147.93ZM91.64,17.11V16.4a17.58,17.58,0,0,1,2.12,8.43V70.35c-.69-.34-1.4-.67-2.12-1Zm-4.7-6.24h0a18,18,0,0,1,1.13,6.28v51c-.72-.22-1.45-.41-2.19-.59V12.07a8.63,8.63,0,0,0-.29-2.2A11.77,11.77,0,0,1,86.94,10.87ZM61.88,7H72.67V17l-4.11-4.72a1.78,1.78,0,0,0-2.51-.17l-.19.19L61.75,16.9ZM6.8,13.05A6.06,6.06,0,0,1,12.56,7H58.33V21.71a1.77,1.77,0,0,0,1.81,1.76,1.74,1.74,0,0,0,1.3-.59l5.84-6.72,5.8,6.68a1.78,1.78,0,0,0,3.15-1.13V7a5.79,5.79,0,0,1,4.66,1.5l.08.08a5,5,0,0,1,1.37,3.51V66.89A36.73,36.73,0,0,0,41,108.55H11.89a8.63,8.63,0,0,0-5.09,1.66Zm5.13,99H41.67a33.58,33.58,0,0,0,1,3.43H7.13A5.1,5.1,0,0,1,11.93,112.06Zm1,11.14a6.09,6.09,0,0,1-5.76-4.15h37a34.71,34.71,0,0,0,2.33,4.11Zm64,13.18a33.18,33.18,0,1,1,33.57-32.89v.1A33.18,33.18,0,0,1,76.94,136.38Zm52.29,19.7-.16.16a4,4,0,0,1-5.49,0L100,132.11a36.5,36.5,0,0,0,5.73-5.59l23.5,24A4,4,0,0,1,129.23,156.08Z"/><path class="cls-1" d="M74.56,84.49a1.77,1.77,0,0,0-2-1.5,1.87,1.87,0,0,0-.34.08l0,0a20.82,20.82,0,0,0-9.79,34.75A1.78,1.78,0,0,0,65,115.29a17.28,17.28,0,0,1,8.1-28.78A1.77,1.77,0,0,0,74.56,84.49Z"/><path class="cls-1" d="M98.49,82.57a29.55,29.55,0,0,0-50.68,20.32h0A29.56,29.56,0,1,0,98.49,82.57ZM76.8,129.07a26,26,0,1,1,26.51-25.56A26,26,0,0,1,76.8,129.07Z"/></g></svg>