<svg xmlns="http://www.w3.org/2000/svg" viewBox="0 0 167.56 165.6"><defs><style>.cls-1{fill:#476c86;}</style></defs><g id="Layer_4" data-name="Layer 4"><path class="cls-1" d="M145.23,48.74a14.21,14.21,0,0,0,3.22-9v-2.8a14.29,14.29,0,0,0-28.58,0v2.8a14.21,14.21,0,0,0,3.22,9,24.31,24.31,0,0,0-6.9,3.13V49.64A16.84,16.84,0,0,0,99.37,32.82h-2a16.68,16.68,0,0,0,3.81-10.63V19.7a16.79,16.79,0,1,0-33.57,0v2.49a16.68,16.68,0,0,0,3.81,10.63h-2A16.84,16.84,0,0,0,52.64,49.64v2.28a24.23,24.23,0,0,0-7-3.18,14.21,14.21,0,0,0,3.22-9v-2.8a14.29,14.29,0,1,0-28.58,0v2.8a14.21,14.21,0,0,0,3.22,9A24.29,24.29,0,0,0,5.7,72.12V97.27A9.7,9.7,0,0,0,15.39,107H18v50.23A3.08,3.08,0,0,0,21,160.26H48.09a3.07,3.07,0,0,0,3.07-3.07V107h2.62a9.71,9.71,0,0,0,9.7-9.64,16.79,16.79,0,0,0,3.11.86v59a3.07,3.07,0,0,0,3.07,3.07h29.5a3.08,3.08,0,0,0,3.08-3.07v-29.8a3.08,3.08,0,0,0-6.15,0v26.72h-8.6V102.27a3.08,3.08,0,0,0-6.15,0v51.84h-8.6V88.83H96.09v14.8a3.08,3.08,0,0,0,6.15,0V98.18a16.93,16.93,0,0,0,3-.83A9.71,9.71,0,0,0,115,107h2.63v50.23a3.07,3.07,0,0,0,3.07,3.07h27a3.08,3.08,0,0,0,3.08-3.07V107h2.58a9.7,9.7,0,0,0,9.69-9.69V72.12A24.29,24.29,0,0,0,145.23,48.74ZM26.45,36.92a8.14,8.14,0,1,1,16.28,0v2.8a8.14,8.14,0,1,1-16.28,0ZM45,154.11H37.66V106.79a3.08,3.08,0,1,0-6.15,0V110a3.57,3.57,0,0,0,0,.46v43.64H24.12V94.8H45ZM57.33,97.27a3.56,3.56,0,0,1-3.55,3.55H51.16V84.46a3.07,3.07,0,1,0-6.14,0v4.19H24.12v-14a3.08,3.08,0,1,0-6.15,0v26.14H15.39a3.56,3.56,0,0,1-3.54-3.55V72.12A18.13,18.13,0,0,1,30,54h9.26A18.15,18.15,0,0,1,52.64,60h0V81.61a16.75,16.75,0,0,0,4.69,11.63v4ZM84.41,9.06A10.65,10.65,0,0,1,95.05,19.7v2.49a10.64,10.64,0,0,1-21.27,0V19.7h0A10.65,10.65,0,0,1,84.41,9.06ZM110,81.61a10.68,10.68,0,0,1-7.8,10.27V49.64a3.08,3.08,0,0,0-6.15,0v33H72.74v-33a3.08,3.08,0,0,0-6.15,0V91.88a10.67,10.67,0,0,1-7.8-10.27v-32A10.68,10.68,0,0,1,69.46,39H81.24v8.4a3.07,3.07,0,1,0,6.14,0V39h12A10.69,10.69,0,0,1,110,49.64Zm16-44.69a8.14,8.14,0,0,1,16.28,0v2.8a8.14,8.14,0,0,1-16.28,0Zm18.61,117.19h-7.36V110.47a3.55,3.55,0,0,0,0-.46v-3.22a3.08,3.08,0,1,0-6.15,0v47.32h-7.36V94.8h20.9Zm8.73-53.29h-2.58V74.68a3.08,3.08,0,1,0-6.15,0v14h-20.9V84.46a3.07,3.07,0,0,0-6.14,0v16.36H115a3.55,3.55,0,0,1-3.54-3.55v-4a16.74,16.74,0,0,0,4.77-11.71V59.88A18.12,18.12,0,0,1,129.53,54h9.26A18.13,18.13,0,0,1,156.9,72.12V97.27h0A3.56,3.56,0,0,1,153.36,100.82Z"/><path class="cls-1" d="M101.34,113.13a3.08,3.08,0,1,0,.9,2.17A3.11,3.11,0,0,0,101.34,113.13Z"/><path class="cls-1" d="M86.48,56.68a3.07,3.07,0,0,0-5.24,2.17,3.13,3.13,0,0,0,.9,2.18,3.07,3.07,0,0,0,4.34-4.35Z"/></g></svg>