<svg xmlns="http://www.w3.org/2000/svg" viewBox="0 0 158.24 180.09"><defs><style>.cls-1,.cls-2{opacity:0.75;}.cls-2{fill:#476c86;}.cls-3{fill:#d5d5d5;}</style></defs><g id="Layer_4" data-name="Layer 4"><g class="cls-1"><rect class="cls-2" x="19.63" y="97.05" width="133.24" height="77.66"/></g><path class="cls-3" d="M67,30.62H29.15a5.7,5.7,0,0,0-5.7,5.68v5.31a5.68,5.68,0,0,0,1.64,4v0a5.73,5.73,0,0,0,4,1.68H67a5.7,5.7,0,0,0,3.91-1.57l.11-.11a5.67,5.67,0,0,0,1.67-4V36.32A5.71,5.71,0,0,0,67,30.62Zm2.15,11a2.15,2.15,0,0,1-.63,1.51,2.18,2.18,0,0,1-1.45.56H29.15A2.15,2.15,0,0,1,27,41.54V36.32a2.15,2.15,0,0,1,2.14-2.15H67A2.15,2.15,0,0,1,69.1,36.3Z"/><path class="cls-3" d="M135,149.7l-23.65-24.3a36.77,36.77,0,0,0-10.16-51l-.37-.24V26.6A21.48,21.48,0,0,0,85.49,6a18.9,18.9,0,0,0-6.07-.87H15.36a8.71,8.71,0,0,0-8.63,8.67V118.91a9.58,9.58,0,0,0,2.82,6.85v-.06a9.61,9.61,0,0,0,6.85,2.83H52.6A36.75,36.75,0,0,0,100.47,136l23.86,24.39a7.58,7.58,0,0,0,10.57,0l.09-.11A7.56,7.56,0,0,0,135,149.7ZM95.11,18.89v-.72a17.73,17.73,0,0,1,2.13,8.43V72.13c-.7-.35-1.41-.67-2.13-1Zm-4.7-6.24h0a17.72,17.72,0,0,1,1.14,6.28v51c-.72-.22-1.45-.42-2.19-.59V13.84a8.5,8.5,0,0,0-.29-2.19A10.36,10.36,0,0,1,90.41,12.65Zm-25-3.89H76.14v10L72,14a1.77,1.77,0,0,0-2.5-.18l-.2.19-4.11,4.65ZM10.28,14.83A6.07,6.07,0,0,1,16,8.77H61.81V23.49a1.78,1.78,0,0,0,3.11,1.16l5.84-6.71,5.8,6.67a1.78,1.78,0,0,0,2.5.24,1.81,1.81,0,0,0,.65-1.36V8.76a5.78,5.78,0,0,1,4.66,1.49l.08.08a5.08,5.08,0,0,1,1.37,3.51V68.66a36.76,36.76,0,0,0-41.38,41.67H15.36A8.5,8.5,0,0,0,10.28,112Zm5.12,99H45.14c.29,1.16.63,2.3,1,3.43H10.61A5.12,5.12,0,0,1,15.4,113.83Zm1,11.15a6.06,6.06,0,0,1-4.29-1.78,6.16,6.16,0,0,1-1.46-2.38h37A37.91,37.91,0,0,0,50,124.94Zm64,13.18A33.18,33.18,0,1,1,114,105.26v.11A33.18,33.18,0,0,1,80.42,138.16Zm52.29,19.7-.17.16a4,4,0,0,1-5.48,0l-23.59-24.13a36.57,36.57,0,0,0,5.73-5.6l23.51,24A4,4,0,0,1,132.71,157.86Z"/><path class="cls-3" d="M78,86.26a1.79,1.79,0,0,0-2-1.5,2,2,0,0,0-.33.09v-.06a20.83,20.83,0,0,0-9.78,34.76,1.78,1.78,0,0,0,2.53-2.48,17.28,17.28,0,0,1,8.1-28.78A1.78,1.78,0,0,0,78,86.26Z"/><path class="cls-3" d="M102,84.34a29.55,29.55,0,0,0-50.68,20.33h0A29.56,29.56,0,1,0,102,84.34Zm-21.68,46.5a26,26,0,1,1,26.51-25.56A26,26,0,0,1,80.28,130.84Z"/></g></svg>