<svg xmlns="http://www.w3.org/2000/svg" viewBox="0 0 115 115"><defs><style>.cls-1{fill:#476c86;}</style></defs><g id="Layer_4" data-name="Layer 4"><path class="cls-1" d="M5.27,71.75c1.42-4.14,2.86-8.27,4.27-12.42q5.93-17.44,11.84-34.91a2.11,2.11,0,0,1,.49-.86c.31,1.47.62,2.94.92,4.42,1.33,6.66,2.79,13.3,3.92,20a17.22,17.22,0,0,1-.46,8.65C24,63,21.9,69.35,19.73,75.71c-.87,2.59-2.31,3.28-4.86,2.36-2.23-.81-4.45-1.68-6.7-2.42a4.32,4.32,0,0,1-2.9-2.47Z"/><path class="cls-1" d="M42.21,57.62c1,1.26,1.93,2.45,2.93,3.55,1.67,1.86,3.72,3,6.24,2.13A10.24,10.24,0,0,0,54.68,61a36.12,36.12,0,0,0,2.84-3.41c.63.78,1.17,1.55,1.81,2.23a20.74,20.74,0,0,0,3,2.87,5.06,5.06,0,0,0,6.34-.42,27.49,27.49,0,0,0,2.71-2.89c.47-.53.89-1.11,1.44-1.81a25.61,25.61,0,0,0,1.89,2.32,19.5,19.5,0,0,0,3.67,3.15c1,.55,2.32.45,3.64.66v39c0,2.6-1.13,3.74-3.71,3.74H36.77c-2.61,0-3.75-1.12-3.75-3.7V63.42C37.88,64.38,39.65,60.51,42.21,57.62Z"/><path class="cls-1" d="M72.86,9.34l15.92,5.31c-.73,2.93-1.43,5.79-2.14,8.65-1.07,4.28-2.17,8.56-3.21,12.85-.34,1.43-1.54,2-2.59,2.7-.12.08-.64-.24-.85-.48-1-1.17-1.93-2.48-3-3.56-2.55-2.49-5.69-2.46-8.27,0a29.48,29.48,0,0,0-2,2.22c-.5.6-1,1.22-1.55,1.95-.58-.73-1.06-1.41-1.63-2a22.28,22.28,0,0,0-3.19-3.11c-2.14-1.49-4.74-1.14-6.81.81a37.71,37.71,0,0,0-2.74,3.15l-1,1.13C49,38,48.32,37,47.55,36.1a13.91,13.91,0,0,0-1.39-1.48,5.46,5.46,0,0,0-7.89,0,26.48,26.48,0,0,0-3,3.55c-.6.79-1.11.87-1.8.2s-1.7-1.57-2.52-2.39a1.85,1.85,0,0,1-.45-.88q-2-10-4-20c0-.13,0-.27-.07-.54L42.13,9.36a15.79,15.79,0,0,0,16,17.52A15.77,15.77,0,0,0,72.86,9.34Z"/><path class="cls-1" d="M93.11,22.85c1,2.95,2,5.7,2.88,8.45q6.72,19.81,13.43,39.62c.78,2.32.13,3.71-2.17,4.56-2.51.93-5,1.86-7.55,2.76a3.07,3.07,0,0,1-4.22-2q-3.6-10.56-7.16-21.11a4.08,4.08,0,0,1-.18-1.1c0-.47,0-.95,0-1.42a55.4,55.4,0,0,1,2.5-20.18c.85-2.82,1.46-5.72,2.18-8.58C92.88,23.57,93,23.32,93.11,22.85Z"/><path class="cls-1" d="M32.75,44.93c2.4.83,4.51,0,6.27-1.9,1.09-1.16,2.07-2.43,3.21-3.77.61.76,1.15,1.53,1.79,2.2a20.82,20.82,0,0,0,3,2.88,5.06,5.06,0,0,0,6.34-.42A27.55,27.55,0,0,0,56.06,41c.47-.53.89-1.11,1.42-1.78l1.08,1.26a37.39,37.39,0,0,0,2.77,3.12,5.41,5.41,0,0,0,7.72,0A28.52,28.52,0,0,0,71.42,41c.44-.52.85-1.06,1.37-1.71.38.43.71.8,1,1.18.72.86,1.38,1.77,2.14,2.59A6,6,0,0,0,82,45v3c0,2.58,0,5.17,0,7.75a1.38,1.38,0,0,1-1.1,1.39c-.26.09-.81-.29-1.07-.59-1-1.06-1.76-2.26-2.77-3.27-2.66-2.65-5.9-2.65-8.55,0-1.2,1.2-2.21,2.58-3.39,4-.55-.68-1-1.36-1.6-2a22.9,22.9,0,0,0-3.19-3.12c-2.12-1.47-4.67-1.14-6.73.75a35.78,35.78,0,0,0-2.75,3.13c-.33.38-.65.77-1,1.22-.55-.67-1-1.29-1.52-1.88a27.78,27.78,0,0,0-1.95-2.23c-2.6-2.49-5.75-2.51-8.33,0-1,1-1.87,2.24-2.85,3.33-.27.31-.81.72-1.07.64-.6-.21-1.22-.58-1.12-1.47a15.28,15.28,0,0,0,0-2.14C32.94,50.7,32.84,47.83,32.75,44.93Z"/><path class="cls-1" d="M66.86,8.55a35.91,35.91,0,0,1-.58,5.5,9,9,0,0,1-9.73,6.63,9.22,9.22,0,0,1-8.21-8.92c0-1,0-2.09,0-3.21Z"/></g></svg>