<svg xmlns="http://www.w3.org/2000/svg" viewBox="0 0 115 115"><defs><style>.cls-1{fill:#476c86;}</style></defs><g id="Layer_4" data-name="Layer 4"><path class="cls-1" d="M99.45,10H50.64a2.21,2.21,0,0,0-2.2,2.2V29.37l2.44-1.51a6,6,0,0,1,2-.79V14.42h44.4V46.18H52.84V41l-4.4,2.74v4.6a2.2,2.2,0,0,0,2.2,2.2H99.45a2.2,2.2,0,0,0,2.2-2.2V12.21A2.21,2.21,0,0,0,99.45,10Z"/><path class="cls-1" d="M67.43,22.24A1.7,1.7,0,0,0,65.05,22l-7.59,6a6.08,6.08,0,0,1,1.85,1.89c.13.22.25.45.36.68l7.47-5.89A1.7,1.7,0,0,0,67.43,22.24Z"/><circle class="cls-1" cx="30.81" cy="13.02" r="6.34"/><path class="cls-1" d="M56.71,31.44a3.06,3.06,0,0,0-4.21-1L46.3,34.3c0-5.14,0-2.41,0-5.72A7.25,7.25,0,0,0,39,21.38H36c-2.57,6.67-1.74,4.19-3.92,9.85l.92-4a1.28,1.28,0,0,0-.13-.88L31.64,24.1l1.11-2a.45.45,0,0,0-.4-.67h-3a.45.45,0,0,0-.39.67l1.1,2-1.24,2.27a1.28,1.28,0,0,0-.14.86l.8,4-3.8-9.85H22.58a7.26,7.26,0,0,0-7.24,7.2l-.11,22.47a3.06,3.06,0,0,0,3,3.08h0a3.06,3.06,0,0,0,3.06-3.05l.11-22.47h0a.6.6,0,0,1,.61-.59.6.6,0,0,1,.6.6V60.45A10.24,10.24,0,0,1,30,63.11V50.69H31.6V64.94A10.24,10.24,0,0,1,31.89,76a10.86,10.86,0,0,1,2.8.37,10.08,10.08,0,0,1,4.25-2.21c0-55.45-.07-21.17-.07-45.54a.64.64,0,0,1,.64-.64.63.63,0,0,1,.64.63c0,2.15.05,8.86.06,11.19a3.06,3.06,0,0,0,4.67,2.58l10.84-6.73A3.05,3.05,0,0,0,56.71,31.44Z"/><circle class="cls-1" cx="91.89" cy="70.77" r="6.71"/><path class="cls-1" d="M108.21,87.24a7.68,7.68,0,0,0-7.66-7.62H83.72a10.23,10.23,0,0,1-.36,10,11.2,11.2,0,0,1,9,5.14h8.06V87.32a.68.68,0,0,1,.66-.68.69.69,0,0,1,.7.63h0l0,7.48h6.48Z"/><path class="cls-1" d="M64.34,84.29a10.27,10.27,0,0,1,1.17-4.75H50.57a10.24,10.24,0,0,1-.4,9.88,11.13,11.13,0,0,1,8,3.43,11.13,11.13,0,0,1,7.71-3.18A10.23,10.23,0,0,1,64.34,84.29Z"/><path class="cls-1" d="M59.25,64A6.71,6.71,0,1,0,66,70.69,6.71,6.71,0,0,0,59.25,64Z"/><path class="cls-1" d="M31.14,84.11a10.14,10.14,0,0,1,1.08-4.56c-.29,0,.92,0-17.77,0a7.68,7.68,0,0,0-7.66,7.63l0,7.58h6.48l0-7.55a.68.68,0,0,1,1.36,0v7.55H23.7a11.13,11.13,0,0,1,9-5.24A10.14,10.14,0,0,1,31.14,84.11Z"/><path class="cls-1" d="M23.12,64a6.71,6.71,0,1,0,6.71,6.71A6.72,6.72,0,0,0,23.12,64Z"/><path class="cls-1" d="M90.56,100.74a7.68,7.68,0,0,0-7.66-7.63h-17A7.87,7.87,0,0,0,58,100.74l0-.18a7.69,7.69,0,0,0-7.67-7.62h-17a7.87,7.87,0,0,0-7.88,7.62l0,7.76H31.9l0-7.73a.59.59,0,0,1,.59-.58.58.58,0,0,1,.58.58v7.73H50.26v-7.73a.63.63,0,0,1,1.25,0l0,7.73H64.48l0-7.55h0a.58.58,0,1,1,1.16,0v7.55H82.83v-7.55a.63.63,0,0,1,.63-.62.62.62,0,0,1,.62.62l0,7.55H90.6Z"/><circle class="cls-1" cx="41.61" cy="84.09" r="6.79"/><circle class="cls-1" cx="74.59" cy="84.26" r="6.79"/></g></svg>