<svg xmlns="http://www.w3.org/2000/svg" viewBox="0 0 115 115"><defs><style>.cls-1{fill:#476c86;}</style></defs><g id="Layer_4" data-name="Layer 4"><path class="cls-1" d="M105,38.11v66.5c-.4,0-.8,0-1.21,0H67.18v-1.2c0-6.51,0-13,0-19.54a7.14,7.14,0,0,0-6.26-7.43,26.84,26.84,0,0,0-6.82,0,7.11,7.11,0,0,0-6.22,7.27c0,6.58,0,13.15,0,19.73v1.1H10.09v-1c0-21.51,0-43,0-64.55a5.39,5.39,0,0,1,5.28-5.24c5.71.13,11.42,0,17.14,0h1.2V32.62c0-4,0-8,0-12a1.2,1.2,0,0,1,.92-1.33c7.34-2.91,14.65-5.85,22-8.75a2.21,2.21,0,0,1,1.46,0c7.37,2.91,14.72,5.87,22.08,8.79a1,1,0,0,1,.79,1.13c0,4.1,0,8.21,0,12.31v1.07h1.22c5.77,0,11.55,0,17.32,0a5.3,5.3,0,0,1,5.13,3.41C104.68,37.5,104.81,37.81,105,38.11ZM19.6,43.28v9.3h9.31v-9.3Zm18.87,0V52.6H47.8V43.29Zm28.35,0v9.31H76.1V43.28Zm18.87,0v9.3H95v-9.3ZM28.94,62.16H19.59v9.29h9.35Zm9.51,9.3h9.36v-9.3H38.45Zm37.65,0V62.14H66.82v9.34Zm18.88,0V62.14h-9.3v9.34ZM62,24.42a4.72,4.72,0,1,0-9.43-.11,4.47,4.47,0,0,0,4.68,4.74A4.41,4.41,0,0,0,62,24.42Z"/></g></svg>