<svg xmlns="http://www.w3.org/2000/svg" viewBox="0 0 115 115"><defs><style>.cls-1{fill:#476c86;}</style></defs><g id="Layer_4" data-name="Layer 4"><path class="cls-1" d="M10.21,67.63c.07.35.1.55.15.75A48,48,0,0,0,29,96.25a3.17,3.17,0,0,0,1.74.57q26.87,0,53.72,0a3.3,3.3,0,0,0,1.84-.62A47.23,47.23,0,0,0,102,76.46c1.2-2.79,2-5.73,3.14-8.83H35.69a10.88,10.88,0,0,1-1.28,0,1.25,1.25,0,0,1,0-2.48,7.83,7.83,0,0,1,1.28,0H94c3.5,0,7,0,10.49,0,.68,0,1-.13,1.08-.91s.25-1.62.3-2.44c.13-2.12.2-4.24.3-6.36H8.84c.22,2.87.47,5.64.61,8.4.06,1.17.6,1.33,1.62,1.32,4.85,0,9.7,0,14.55,0a2.41,2.41,0,0,1,1.25.13,1.77,1.77,0,0,1,.83,1.18c0,.4-.49.88-.88,1.15s-.76.1-1.15.1H10.21Zm74,31.82H31a1.27,1.27,0,0,0-.12.34c0,.89,0,1.78,0,2.67,0,1.85.27,2.11,2.1,2.11H82.11c.28,0,.64.11.84,0,.45-.31,1.12-.71,1.17-1.13A32.66,32.66,0,0,0,84.18,99.45ZM81,33.08a6.87,6.87,0,0,0-1.58-4.35,4.12,4.12,0,0,1-.05-5.41c2.25-3.25,2.23-5.7.05-9a6.8,6.8,0,0,1-1-2.43C78.23,11,78,10.38,77,10.39c-.83,0-1.28.73-1.19,1.8A7.47,7.47,0,0,0,77.35,16c1.46,2,1.42,3.6,0,5.69a9.15,9.15,0,0,0-1.18,2.14,6.44,6.44,0,0,0,1.08,6.35A4.26,4.26,0,0,1,78.31,34a8.23,8.23,0,0,1-1.18,2.35,6.9,6.9,0,0,0-1.33,4,1.2,1.2,0,0,0,1.25,1.32,1.12,1.12,0,0,0,1.27-1.15,5.39,5.39,0,0,1,1.3-3.21A6.28,6.28,0,0,0,81,33.08ZM68,18.86a7.77,7.77,0,0,0-1.33-4.1,13.49,13.49,0,0,1-1.27-3.09c-.24-.78-.57-1.36-1.43-1.27s-1.15.69-1.14,1.52a6.59,6.59,0,0,0,1.31,3.77c1.78,2.52,1.76,3.74,0,6.29a6.66,6.66,0,0,0,0,8.07c1.76,2.54,1.77,3.74,0,6.29a6.56,6.56,0,0,0-1.3,3.78c0,.83.29,1.42,1.17,1.49s1.17-.53,1.4-1.3a11.6,11.6,0,0,1,1.22-3,6.8,6.8,0,0,0,0-8.25c-1.65-2.38-1.67-3.74,0-6.13A7,7,0,0,0,68,18.86ZM52.4,20.63A5.51,5.51,0,0,0,51.09,17a5,5,0,0,1-1.34-3,1.15,1.15,0,0,0-1.38-1.15c-.82.08-1.13.62-1.13,1.41a5.68,5.68,0,0,0,1.28,3.55c1.82,2.4,1.81,3.28,0,5.68a5.84,5.84,0,0,0,0,7.49c1.76,2.31,1.77,3.28,0,5.59a5.7,5.7,0,0,0-1.31,3.64c0,.8.37,1.32,1.17,1.37s1.15-.47,1.39-1.19A9.8,9.8,0,0,1,51,37.75c1.92-2.69,2-5.23,0-7.85-1.6-2.13-1.61-3.24,0-5.34A6.06,6.06,0,0,0,52.4,20.63Zm-13,.08A6.07,6.07,0,0,0,38,16.78a7.74,7.74,0,0,1-1.17-2.44c-.27-1-.63-1.55-1.46-1.47s-1.2.71-1.13,1.75a6.79,6.79,0,0,0,1.68,3.73,3.37,3.37,0,0,1,0,4.67c-2.32,3.1-2.31,5.36,0,8.5a3.41,3.41,0,0,1,0,4.59,4.49,4.49,0,0,0-.81,1.12,17.27,17.27,0,0,0-.89,3.14c-.1.7.42,1.2,1.18,1.25a1.13,1.13,0,0,0,1.31-1.11A4.91,4.91,0,0,1,38,37.64,5.85,5.85,0,0,0,38,30c-1.7-2.26-1.71-3.22,0-5.5A5.67,5.67,0,0,0,39.38,20.71Z"/><path class="cls-1" d="M10.21,67.63H25.67c.39,0,.87.09,1.15-.1s.87-.75.88-1.15a1.77,1.77,0,0,0-.83-1.18,2.41,2.41,0,0,0-1.25-.13c-4.85,0-9.7,0-14.55,0-1,0-1.56-.15-1.62-1.32-.14-2.76-.39-5.53-.61-8.4h97.32c-.1,2.12-.17,4.24-.3,6.36,0,.82-.27,1.62-.3,2.44s-.4.91-1.08.91c-3.5,0-7,0-10.49,0H35.66a7.83,7.83,0,0,0-1.28,0,1.25,1.25,0,0,0,0,2.48,10.88,10.88,0,0,0,1.28,0h69.46c-1.09,3.1-1.94,6-3.14,8.83A47.23,47.23,0,0,1,86.25,96.19a3.3,3.3,0,0,1-1.84.62q-26.85.06-53.72,0A3.17,3.17,0,0,1,29,96.25,48,48,0,0,1,10.36,68.38C10.31,68.18,10.28,68,10.21,67.63Z"/><path class="cls-1" d="M84.18,99.45a32.66,32.66,0,0,1-.06,4c-.05.42-.72.82-1.17,1.13-.2.13-.56,0-.84,0H33c-1.83,0-2.1-.26-2.1-2.11,0-.89,0-1.78,0-2.67a1.27,1.27,0,0,1,.12-.34Z"/><path class="cls-1" d="M81,33.08a6.28,6.28,0,0,1-1.33,4.17,5.39,5.39,0,0,0-1.3,3.21,1.12,1.12,0,0,1-1.27,1.15,1.2,1.2,0,0,1-1.25-1.32,6.9,6.9,0,0,1,1.33-4A8.23,8.23,0,0,0,78.31,34a4.26,4.26,0,0,0-1.06-3.77,6.44,6.44,0,0,1-1.08-6.35,9.15,9.15,0,0,1,1.18-2.14c1.42-2.09,1.46-3.65,0-5.69a7.47,7.47,0,0,1-1.54-3.81c-.09-1.07.36-1.8,1.19-1.8,1,0,1.23.65,1.39,1.53a6.8,6.8,0,0,0,1,2.43c2.18,3.27,2.2,5.72-.05,9a4.12,4.12,0,0,0,.05,5.41A6.87,6.87,0,0,1,81,33.08Z"/><path class="cls-1" d="M68,18.86a7,7,0,0,1-1.39,4.07c-1.7,2.39-1.68,3.75,0,6.13a6.8,6.8,0,0,1,0,8.25,11.6,11.6,0,0,0-1.22,3c-.23.77-.52,1.37-1.4,1.3s-1.18-.66-1.17-1.49a6.56,6.56,0,0,1,1.3-3.78c1.79-2.55,1.78-3.75,0-6.29a6.66,6.66,0,0,1,0-8.07c1.76-2.55,1.78-3.77,0-6.29a6.59,6.59,0,0,1-1.31-3.77c0-.83.28-1.44,1.14-1.52s1.19.49,1.43,1.27a13.49,13.49,0,0,0,1.27,3.09A7.77,7.77,0,0,1,68,18.86Z"/><path class="cls-1" d="M52.4,20.63A6.06,6.06,0,0,1,51,24.56c-1.64,2.1-1.63,3.21,0,5.34,2,2.62,1.93,5.16,0,7.85a9.8,9.8,0,0,0-1.15,2.67c-.24.72-.57,1.26-1.39,1.19s-1.16-.57-1.17-1.37a5.7,5.7,0,0,1,1.31-3.64c1.78-2.31,1.77-3.28,0-5.59a5.84,5.84,0,0,1,0-7.49c1.8-2.4,1.81-3.28,0-5.68a5.68,5.68,0,0,1-1.28-3.55c0-.79.31-1.33,1.13-1.41A1.15,1.15,0,0,1,49.75,14a5,5,0,0,0,1.34,3A5.51,5.51,0,0,1,52.4,20.63Z"/><path class="cls-1" d="M39.38,20.71a5.67,5.67,0,0,1-1.32,3.76c-1.75,2.28-1.74,3.24,0,5.5a5.85,5.85,0,0,1,0,7.67,4.91,4.91,0,0,0-1.26,2.87,1.13,1.13,0,0,1-1.31,1.11c-.76,0-1.28-.55-1.18-1.25a17.27,17.27,0,0,1,.89-3.14A4.49,4.49,0,0,1,36,36.11a3.41,3.41,0,0,0,0-4.59c-2.36-3.14-2.37-5.4,0-8.5a3.37,3.37,0,0,0,0-4.67,6.79,6.79,0,0,1-1.68-3.73c-.07-1,.33-1.67,1.13-1.75s1.19.44,1.46,1.47A7.74,7.74,0,0,0,38,16.78,6.07,6.07,0,0,1,39.38,20.71Z"/></g></svg>