<svg xmlns="http://www.w3.org/2000/svg" viewBox="0 0 115 115"><defs><style>.cls-1{fill:#476c86;}</style></defs><g id="Layer_4" data-name="Layer 4"><circle class="cls-1" cx="55.17" cy="15.87" r="4.63"/><circle class="cls-1" cx="79.72" cy="15.87" r="4.63"/><path class="cls-1" d="M93.53,20.09a12.89,12.89,0,0,0-11.28-6.51v4.59A8.34,8.34,0,0,1,89.87,23a8.71,8.71,0,0,1-.47,8.07L74.93,56.13a8.7,8.7,0,0,1-6.74,4.44,8.36,8.36,0,0,1-8-4.19L45.57,31.07A8.72,8.72,0,0,1,45.1,23a8.37,8.37,0,0,1,7.63-4.84V13.58A12.9,12.9,0,0,0,41,20.87a13.33,13.33,0,0,0,.58,12.52l14.6,25.29a12.87,12.87,0,0,0,9,6.31V77.32c0,12.05-7.11,21.84-15.85,21.84S33.49,89.37,33.49,77.32V62.64a11.48,11.48,0,1,0-4.6,0V77.32c0,14.58,9.17,26.44,20.45,26.44S69.78,91.9,69.78,77.32V65a12.91,12.91,0,0,0,9-6.31L93.53,33.11A12.9,12.9,0,0,0,93.53,20.09Z"/></g></svg>