<svg xmlns="http://www.w3.org/2000/svg" viewBox="0 0 115 115"><defs><style>.cls-1{fill:#476c86;}</style></defs><g id="Layer_4" data-name="Layer 4"><path class="cls-1" d="M90.6,7.94a2.73,2.73,0,0,1,1.1,2.49q0,24.66,0,49.34v1.09H23.38c0-.32-.06-.66-.06-1q0-24.76,0-49.53a2.65,2.65,0,0,1,1.1-2.39ZM57.51,54.05C67.27,53.83,73.93,43.6,70,34.79c-2.84-6.4-6.85-12-11.08-17.52a1.72,1.72,0,0,0-2.89,0A88.82,88.82,0,0,0,45.69,33.22a15.41,15.41,0,0,0-1.77,8.58C44.68,48.44,50.83,54.06,57.51,54.05Z"/><path class="cls-1" d="M91.63,64.39c0,.37.05.71.05,1.06V94.38c0,1.89-.52,2.41-2.41,2.41H86.35c-.26-1.89-.52-3.76-.77-5.63-.67-5-1.31-10.09-2-15.14-.44-3.17-2.38-4.84-5.58-4.85q-20.51,0-41,0c-3.15,0-5.09,1.67-5.53,4.79-.89,6.48-1.73,13-2.59,19.45-.06.44-.14.88-.22,1.37-1.27,0-2.49,0-3.71,0a1.56,1.56,0,0,1-1.55-1.46,6.11,6.11,0,0,1-.05-1V64.39Z"/><path class="cls-1" d="M82.81,96.75H32.13c.22-1.67.41-3.28.63-4.9q1-7.71,2.08-15.41c.18-1.35.74-1.88,2.1-1.88H78a1.82,1.82,0,0,1,2.12,1.86q1.34,9.85,2.65,19.73A4,4,0,0,1,82.81,96.75Zm-37.3-3.4a6.8,6.8,0,0,0,2.6-13.11c-.49-.2-.86-.33-1-1a1.66,1.66,0,0,0-3.21,0c-.1.58-.43.75-.91.94a6.79,6.79,0,0,0,2.49,13.12Zm23.93,0A6.8,6.8,0,0,0,72,80.24c-.51-.2-.85-.4-1-1A1.49,1.49,0,0,0,69.42,78a1.54,1.54,0,0,0-1.59,1.28,1.06,1.06,0,0,1-.8.9,6.79,6.79,0,0,0,2.41,13.15Z"/><path class="cls-1" d="M25,100.27H35.2a33.38,33.38,0,0,1,0,4.13A3.22,3.22,0,0,1,31.91,107c-1.16,0-2.32,0-3.48,0a3.36,3.36,0,0,1-3.38-3.18C25,102.71,25,101.55,25,100.27Z"/><path class="cls-1" d="M79.74,100.27H90a39.07,39.07,0,0,1-.23,4.22A3.16,3.16,0,0,1,86.69,107c-1.22,0-2.45,0-3.67,0a3.35,3.35,0,0,1-3.28-3.27C79.71,102.64,79.74,101.51,79.74,100.27Z"/><path class="cls-1" d="M50.92,48a10.37,10.37,0,0,1-3-11.39,56.06,56.06,0,0,1,6.46-11.31c1-1.4,2-2.77,3.07-4.3,1,1.45,2,2.78,3,4.15A57.63,57.63,0,0,1,67,36.47c1.65,4.25.38,7.88-2.46,11.14a.54.54,0,0,1-.47.24,6.58,6.58,0,0,0-.66-5q-2.12-4.18-4.37-8.29a1.67,1.67,0,0,0-3-.1c-1.63,3-3.18,6-4.7,9.08A6,6,0,0,0,50.92,48Z"/><path class="cls-1" d="M57.49,38.67a27.65,27.65,0,0,1,3.34,7.14A4.42,4.42,0,0,1,58.5,50.4a3.17,3.17,0,0,1-2,0A4.36,4.36,0,0,1,54.14,46,26,26,0,0,1,57.49,38.67Z"/><path class="cls-1" d="M47.5,83.82a3.17,3.17,0,0,1,1.31,3.66,3.39,3.39,0,0,1-6.51.13,3.3,3.3,0,0,1,1.33-3.84c.68.37,1.27.94,1.89,1S46.7,84.22,47.5,83.82Z"/><path class="cls-1" d="M67.75,83.64c1.2,1.61,2.27,1.61,3.37,0a3.2,3.2,0,0,1,1.67,3.62,3.41,3.41,0,0,1-6.54.4A3.36,3.36,0,0,1,67.75,83.64Z"/></g></svg>