<svg xmlns="http://www.w3.org/2000/svg" viewBox="0 0 115 115"><defs><style>.cls-1{fill:#476c86;}</style></defs><g id="Layer_4" data-name="Layer 4"><path class="cls-1" d="M34.6,48.08c0-2.91,0-5.82,0-8.73,0-1.32.7-2.11,2-2,3.51.42,6.92-1.58,7.44-6.74.2-2,1.41-2.63,3.07-1.51A59.17,59.17,0,0,0,72,38.88c2.18.32,4.39.43,6.59.63,1.31.12,1.85.67,1.85,2,0,4.88,0,9.76,0,14.65a22.86,22.86,0,0,1-45.22,4,47.56,47.56,0,0,1-.55-7.58C34.54,51.09,34.6,49.59,34.6,48.08Z"/><path class="cls-1" d="M85.77,38.8v10c0,.27.09.6,0,.79-.23.37-.54.86-.91.95-.63.17-1-.33-1-.95,0-1.37,0-2.74,0-4.11s0-3,0-4.42a5,5,0,0,0-4.78-5,55.07,55.07,0,0,1-21-4.83c-3.23-1.51-6.28-3.4-9.36-5.2a5.18,5.18,0,0,0-6.4.4,5,5,0,0,0-1.69,3.42c0,.39-.08.79-.15,1.19C40,33.27,39,34,36.82,34a5.14,5.14,0,0,0-5.54,4,6.85,6.85,0,0,0-.11,1.5c0,3.18,0,6.35,0,9.53,0,.3.08.69-.07.88a1.5,1.5,0,0,1-1,.65c-.28,0-.68-.36-.84-.66a2.54,2.54,0,0,1-.08-1.08V29.36c0-4.31,1.83-6.78,5.92-8.1a1.59,1.59,0,0,0,.74-.71,18.49,18.49,0,0,1,14.19-10,9.59,9.59,0,0,1,1.19-.12c5.63,0,11.25-.13,16.87,0A18.39,18.39,0,0,1,85.55,26.87c.33,3.95.06,8,.06,11.93Z"/><path class="cls-1" d="M57.43,104.61H25.22c-1.91,0-2.42-.53-2.43-2.46,0-8.75,5.07-15.72,13.13-17.86a20.91,20.91,0,0,1,3.95-.58c1.66-.12,1.9.09,2.6,1.61a15.74,15.74,0,0,0,10.28,9c7.83,2.28,16.75-1.12,19.93-9.3a2,2,0,0,1,2.17-1.36A17.66,17.66,0,0,1,92.19,101c0,.63,0,1.27,0,1.9a1.71,1.71,0,0,1-1.75,1.71c-.63,0-1.27,0-1.91,0Z"/><path class="cls-1" d="M57.84,91.73a13.61,13.61,0,0,1-12.42-8.17c-.55-1.32.21-2.07.93-2.91a1.85,1.85,0,0,1,2.26-.49,25.94,25.94,0,0,0,17.78,0,1.79,1.79,0,0,1,2.12.37c.75.84,1.64,1.61,1.09,3a12.56,12.56,0,0,1-10.17,8.07C58.8,91.67,58.16,91.7,57.84,91.73Z"/></g></svg>