<svg xmlns="http://www.w3.org/2000/svg" viewBox="0 0 115 115"><defs><style>.cls-1{fill:#476c86;}</style></defs><g id="Layer_4" data-name="Layer 4"><path class="cls-1" d="M62.06,54.24V82.93h-2c-11.81,0-23.61,0-35.42,0-2.67,0-4.82.71-6.09,3.25a1.3,1.3,0,0,1-1,.59c-2.34,0-4.68,0-7.12,0V51.38h46.2a2.08,2.08,0,0,1,2,1C59.31,53.23,60.67,53.52,62.06,54.24ZM36.81,63H18.55a3.41,3.41,0,0,0-1.11,0c-.29.11-.7.45-.69.67s.37.59.66.74a2.27,2.27,0,0,0,.95.08c12.23,0,24.45,0,36.68,0,.54,0,1.07-.54,1.6-.84A4.69,4.69,0,0,0,55.08,63C49,62.93,42.9,63,36.81,63Zm-.25-5.45c6.13,0,12.27,0,18.4,0a5.07,5.07,0,0,0,1.69-.73C56.11,56.47,55.56,56,55,56q-18.33-.08-36.66,0c-.56,0-1.12.49-1.68.75.54.27,1.09.76,1.64.77C24.39,57.52,30.47,57.5,36.56,57.5Zm-.07,20.82h18.1a3.48,3.48,0,0,0,1.12,0,3.91,3.91,0,0,0,.92-.68,6.43,6.43,0,0,0-1-.83c-.2-.11-.52,0-.79,0H18.49a3.73,3.73,0,0,0-1.26.12.89.89,0,0,0-.5.71.92.92,0,0,0,.54.66,4.1,4.1,0,0,0,1.27.08Zm.32-7c6.14,0,12.28,0,18.42,0,.48,0,1-.4,1.43-.62-.48-.28-1-.57-1.46-.82-.12-.07-.31,0-.47,0h-36a5.15,5.15,0,0,0-1.42.11.88.88,0,0,0-.52.65.85.85,0,0,0,.54.63,4.44,4.44,0,0,0,1.27.08Z"/><path class="cls-1" d="M45.1,104.61q-10.33,0-20.67,0c-3.31,0-4.77-1.47-4.77-4.8,0-3.63,0-7.26,0-10.89,0-2.9,1.54-4.47,4.44-4.47q21.07,0,42.14,0c2.77,0,4.36,1.61,4.37,4.39,0,3.74,0,7.48,0,11.22,0,3-1.53,4.55-4.53,4.56Q55.61,104.63,45.1,104.61Zm.08-12.46a2.25,2.25,0,1,0-2.37-2.3A2.32,2.32,0,0,0,45.18,92.15Zm0,9.26A2.25,2.25,0,1,0,42.8,99.1,2.32,2.32,0,0,0,45.17,101.41Zm-9.34-9.27a2.25,2.25,0,1,0,.12-4.5,2.25,2.25,0,1,0-.12,4.5Zm18.52,0a2.25,2.25,0,0,0,2.36-2.28,2.27,2.27,0,0,0-2.27-2.23,2.26,2.26,0,1,0-.09,4.51ZM35.93,96.92a2.25,2.25,0,1,0-.07,4.49,2.25,2.25,0,1,0,.07-4.49Zm20.78,2.27a2.23,2.23,0,0,0-2.2-2.27,2.24,2.24,0,1,0-.22,4.48A2.26,2.26,0,0,0,56.71,99.19Zm7-2.28a2.26,2.26,0,0,0-2.38,2.24,2.3,2.3,0,0,0,2.22,2.26,2.24,2.24,0,0,0,2.35-2.26A2.17,2.17,0,0,0,63.73,96.91Zm-37-9.26a2.25,2.25,0,1,0-.1,4.5,2.25,2.25,0,1,0,.1-4.5Zm39.22,2.18a2.17,2.17,0,0,0-2.25-2.18A2.29,2.29,0,0,0,61.36,90a2.24,2.24,0,0,0,2.29,2.17A2.15,2.15,0,0,0,65.91,89.83ZM26.69,101.41a2.29,2.29,0,0,0,2.24-2.23,2.26,2.26,0,0,0-2.35-2.27,2.16,2.16,0,0,0-2.21,2.22A2.21,2.21,0,0,0,26.69,101.41Z"/><path class="cls-1" d="M10.48,49.82a11.25,11.25,0,0,1,5.15-8.74A13.71,13.71,0,0,0,22,30.69H51.32c.43,4.9,3.14,8.39,7.2,11a4.2,4.2,0,0,1,2.14,4.45c-.12.79-.12,1.42-1.07,1.63a1.26,1.26,0,0,0-.82.7c-.36,1.49-1.47,1.35-2.6,1.35H10.48Z"/><path class="cls-1" d="M100.62,89.1H72.43c-1.31-5.24-1.31-5.24-8.69-6.34V63.05h36.88Zm-8.5-13a10,10,0,1,0-10,9.92A9.87,9.87,0,0,0,92.12,76.1Z"/><path class="cls-1" d="M56.72,25.77H16.58v-3.3c0-2.09,0-4.17,0-6.25.08-3.58,2.3-5.8,5.85-5.81q14.25,0,28.51,0c3.16,0,5.57,2,5.73,5.09C56.85,18.84,56.72,22.2,56.72,25.77Z"/><path class="cls-1" d="M62.14,47.43c0-2.32-.15-4.51,0-6.67.23-2.55,2.18-4,5.1-4,6.35,0,12.7,0,19.06,0,3.52,0,7,0,10.57,0s5.3,1.76,5.34,5.32c0,1.75,0,3.5,0,5.37Z"/><path class="cls-1" d="M72.3,90.73h28.39c0,2.27.14,4.45,0,6.6a4.25,4.25,0,0,1-4.06,4c-8.06.07-16.11,0-24.29,0Z"/><path class="cls-1" d="M100.69,53.75v7.48H63.76V53.75Z"/><path class="cls-1" d="M82.12,52.07c-6.83,0-13.66,0-20.49,0-1.05,0-1.88,0-1.89-1.46s.79-1.6,1.95-1.6h41c.88,0,1.87-.18,1.94,1.25.06,1.26-.28,1.83-1.68,1.82-6.94-.06-13.88,0-20.81,0Z"/><path class="cls-1" d="M10.45,88.37H18v12.89C12.66,101.12,9.93,96.52,10.45,88.37Z"/><path class="cls-1" d="M36.53,29H16.19a3.77,3.77,0,0,1-1.26-.06,1,1,0,0,1-.63-.73,1.1,1.1,0,0,1,.63-.76A3.14,3.14,0,0,1,16,27.38H57.36c.32,0,.7-.1.94,0a1.55,1.55,0,0,1,.7.86c0,.16-.4.56-.69.65A4.48,4.48,0,0,1,57,29Z"/><path class="cls-1" d="M84.61,80.8c-.2.67-.31,1.87-.62,1.92a12.88,12.88,0,0,1-3.77,0c-.17,0-.29-1-.3-1.6,0-2.73,0-2.68-2.68-2.77-.66,0-1.84-.31-1.89-.61a10.08,10.08,0,0,1,.12-3.59c0-.26,1.21-.38,1.87-.39,2.55,0,2.52,0,2.58-2.55,0-.68.23-1.89.51-1.94a11.22,11.22,0,0,1,3.61,0c.21,0,.36,1.12.37,1.72,0,2.69,0,2.65,2.73,2.74.66,0,1.83.34,1.87.64A10.33,10.33,0,0,1,88.83,78c-.06.25-1.23.35-1.89.36C84.43,78.37,84.43,78.34,84.61,80.8Z"/></g></svg>