<svg xmlns="http://www.w3.org/2000/svg" viewBox="0 0 115 115"><defs><style>.cls-1{fill:#476c86;}</style></defs><g id="Layer_4" data-name="Layer 4"><path class="cls-1" d="M39.81,75.16a7.59,7.59,0,0,1,.1-2.77c1.93-6.19,2.6-12.73.7-18.92-1.48-4.81-1.16-8.48,1.45-12l7.45,5c2,1.3,3.93,2.55,5.82,3.94a2.55,2.55,0,0,1,.91,1.73c.09,2.66.08,5.32,0,8a2.4,2.4,0,0,1-.8,1.57c-2,1.78-2,4.53.36,6.08a3.18,3.18,0,0,0,3.42,0c2.41-1.61,2.33-4.33.26-6.09a2.37,2.37,0,0,1-.78-1.56c-.08-2.67-.06-5.34,0-8a2.06,2.06,0,0,1,.66-1.5c4.45-3,8.94-6,13.47-9a10.28,10.28,0,0,1,2.43,7q0,7.93,0,15.87c0,3.17,0,6.33,0,9.49,0,.9-.15,1.41-1.24,1.41-11.17,0-22.35,0-33.53,0A4.17,4.17,0,0,1,39.81,75.16Z"/><path class="cls-1" d="M70.42,103.76H58.77c-.11-2.24-.44-3.6,1.75-7.12a8.42,8.42,0,0,0-1.61-11.06c-.5-.4,0-1.4-.29-1.94s-.75-1.08-1.13-1.07-.89.63-1.14,1.09A3,3,0,0,0,56.29,85q0,8.42,0,16.85v1.91H44.51V77.8H70.42Z"/><path class="cls-1" d="M73,82.3V77.69h2c2.62,0,2.74-.12,2.74-2.81V49c4.5.19,8.88,0,13.14.65,4.47.66,8,5.23,8.14,9.87.13,7.36,0,14.72,0,22.09a3.88,3.88,0,0,1-.15.68ZM89.63,65.86a24.48,24.48,0,0,0-3.43,0c-.51.07-1.34.65-1.35,1A42.54,42.54,0,0,0,85,74.24c.32,2.19,2.74,3.65,4.91,3.43a4.71,4.71,0,0,0,4.22-4.45c0-.92,0-1.85,0-2.78C94.2,65.87,94.2,65.87,89.63,65.86Z"/><path class="cls-1" d="M16.05,82.27c0-.6-.09-1.08-.09-1.56,0-6.65,0-13.31,0-20,0-6.84,4.69-11.52,11.5-11.56,3.2,0,6.41,0,9.83,0v1.89Q37.3,63,37.3,75c0,2.65.09,2.74,2.78,2.72H42v4.59Zm10.53-16.4c-1.42,0-2.84,0-4.26,0-1.11,0-1.58.46-1.57,1.56,0,1.74,0,3.48,0,5.23,0,2.94,2,5,4.67,5a4.84,4.84,0,0,0,4.81-5c.06-1.69,0-3.38,0-5.07,0-1.23-.5-1.79-1.62-1.8C28,65.83,27.27,65.89,26.58,65.87Z"/><path class="cls-1" d="M42,84.93v18.8H32.68c0-.43-.09-.9-.09-1.36,0-3.66,0-7.31,0-11,0-.87-.06-1.77-1.16-1.8s-1.15.92-1.15,1.77v12.35h-10V84.93Z"/><path class="cls-1" d="M94.69,84.89v18.8h-10V100c0-2.83,0-5.67,0-8.5,0-.89.06-1.94-1.2-1.89s-1.17,1.07-1.17,2q0,5.14,0,10.3v1.85H73V84.89Z"/><path class="cls-1" d="M49.2,19.58a8.29,8.29,0,1,1,8.37,8.28A8.27,8.27,0,0,1,49.2,19.58Z"/><path class="cls-1" d="M71.19,39.83c-4.51,3-8.85,5.9-13.21,8.77a1,1,0,0,1-1,0c-4.37-2.87-8.71-5.77-13.2-8.76a9.12,9.12,0,0,1,5.9-2.42q7.77-.14,15.54,0A9.73,9.73,0,0,1,71.19,39.83Z"/><path class="cls-1" d="M37.29,32.66a7.1,7.1,0,1,1-14.2-.14,7.2,7.2,0,0,1,7.11-7.07A7.1,7.1,0,0,1,37.29,32.66Z"/><path class="cls-1" d="M91.84,32.86a7.21,7.21,0,0,1-7.15,6.84,7,7,0,0,1-7-7.11,7.07,7.07,0,0,1,7.13-7.15A7.15,7.15,0,0,1,91.84,32.86Z"/><path class="cls-1" d="M59.09,64.58c-.7.56-1.13,1.16-1.53,1.15s-.82-.64-1.23-1c.39-.43.71-1.08,1.19-1.21C57.84,63.43,58.36,64.06,59.09,64.58Z"/><path class="cls-1" d="M87.2,68.26h4.59c0,1.7.11,3.35,0,5a2.24,2.24,0,0,1-2.2,2,2.13,2.13,0,0,1-2.35-2C87.13,71.64,87.2,70,87.2,68.26Z"/><path class="cls-1" d="M23.09,68.29h4.75c0,1.63.08,3.19,0,4.73a2.39,2.39,0,0,1-2.25,2.25A2.24,2.24,0,0,1,23.11,73C23,71.47,23.09,70,23.09,68.29Z"/></g></svg>