<svg xmlns="http://www.w3.org/2000/svg" viewBox="0 0 115 115"><defs><style>.cls-1{fill:#476c86;}</style></defs><g id="Layer_4" data-name="Layer 4"><g id="Solid"><path class="cls-1" d="M110.39,106.16H59.62V83.86L73.69,71.8a.21.21,0,0,1,0-.06,1.89,1.89,0,0,0,.38-.5c0-.06.09-.12.13-.19a2.11,2.11,0,0,0,.18-.86V59.62h36ZM44.81,72.31H66.6l-9.88,8.46H44.81ZM30,34.23H55.38v8.46H30ZM44.81,46.92H70.19v8.46H44.81Zm14.81,12.7H70.19v8.46H59.62Zm40.19-4.24H74.42V46.92H99.81ZM85,42.69H59.62V34.23H85ZM99.81,30H74.42V21.54H99.81Zm14.81-12.69H89.23V8.84h25.39ZM85,17.31H59.62V8.84H85ZM30,8.84H55.38v8.47H30Zm14.81,12.7H70.19V30H44.81ZM.38,34.23H25.77v8.46H.38ZM15.19,46.92H40.58v8.46H15.19ZM30,59.62H55.38v8.46H30ZM15.19,72.31H40.58v8.46H15.19ZM30,85H55.38v8.46H30ZM15.19,97.69H40.58v8.47H15.19Zm29.62,0H55.38v8.47H44.81Z"/></g></g></svg>