<svg xmlns="http://www.w3.org/2000/svg" viewBox="0 0 115 115"><defs><style>.cls-1{fill:#476c86;}</style></defs><g id="Layer_4" data-name="Layer 4"><path class="cls-1" d="M31.54,87V99.12H24.61V84.8A9.57,9.57,0,0,0,30.68,87C31,87,31.26,87,31.54,87Z"/><path class="cls-1" d="M99.13,29.8a8.65,8.65,0,0,1-6.5-2.93,6.94,6.94,0,0,1-5.46,1,21.29,21.29,0,0,1-.54,2.64,7,7,0,0,1,3.86,6.22,8.62,8.62,0,0,1,7.58,4.49c1.91,1,5.68,2.77,7.13,1.9.78-.47.89-2,.89-2.9a16.19,16.19,0,0,0-4.44-10.77,10.75,10.75,0,0,1-2.52.33ZM95.67,35a1.74,1.74,0,1,1,1.73-1.74A1.74,1.74,0,0,1,95.67,35Z"/><path class="cls-1" d="M82.08,32.31c1.58-2.38,1.91-6,1.84-8.82L73.33,35.28c3.16,0,7.19-.59,8.75-3Z"/><path class="cls-1" d="M95.06,50.59a1.72,1.72,0,0,1-.28-2.27,5.23,5.23,0,0,0-4.31-8.15,12,12,0,0,0-1.71.29,1.74,1.74,0,0,1-2.15-1.22,1.61,1.61,0,0,1,0-1.06A8.22,8.22,0,0,0,87,36.71a3.43,3.43,0,0,0-1.71-3,3.82,3.82,0,0,1-.31.47C82.47,38,77.1,38.7,73.37,38.7a27.83,27.83,0,0,1-4-.28,1.75,1.75,0,0,1-1.45-2,1.53,1.53,0,0,1,.43-.89L84,18.23a1.74,1.74,0,0,1,2.45-.13,1.71,1.71,0,0,1,.54,1,30.82,30.82,0,0,1,.43,5.25,3.49,3.49,0,0,0,4.14-1.15A1.74,1.74,0,0,1,94,22.8a1.89,1.89,0,0,1,.52.63,5.2,5.2,0,1,0,3.35-7.37,1.74,1.74,0,0,1-2.12-1.23,2,2,0,0,1-.07-.5v-.17a3.47,3.47,0,0,0-3.46-3.47,3.55,3.55,0,0,0-2.67,1.23,1.73,1.73,0,0,1-2.44.22,1.86,1.86,0,0,1-.48-.63,4.33,4.33,0,0,0-5.72-2.19,4.46,4.46,0,0,0-2.43,2.84,1.73,1.73,0,0,1-2.12,1.24,1.59,1.59,0,0,1-.48-.22,5.2,5.2,0,0,0-6.17,8.34,1.73,1.73,0,0,1-1.3,3,4.1,4.1,0,0,0-.5,0,5.22,5.22,0,0,0-5.2,5.2,4.78,4.78,0,0,0,0,.54,1.73,1.73,0,0,1-1.51,1.93,1.87,1.87,0,0,1-.91-.13,7,7,0,0,0-2.8-.58,6.86,6.86,0,0,0-4.42,1.6A1.72,1.72,0,0,1,50.74,33a5.22,5.22,0,0,0-8.67,2.3,1.72,1.72,0,0,1-2.14,1.19,1.82,1.82,0,0,1-.78-.46,3.47,3.47,0,0,0-4.9-.06,3.37,3.37,0,0,0-.48.58,1.73,1.73,0,0,1-2.4.5,1.7,1.7,0,0,1-.5-.5,3.47,3.47,0,0,0-4.81-1,3.38,3.38,0,0,0-1.41,1.91,1.74,1.74,0,0,1-2.14,1.19,5.2,5.2,0,0,0-6.46,3.55,5.11,5.11,0,0,0,0,2.9,1.74,1.74,0,0,1-1.17,2.15,3.48,3.48,0,0,0-2.49,3.31A3.36,3.36,0,0,0,13,52.5a1.73,1.73,0,0,1-.48,2.41l-.11.06a7,7,0,0,0-2.56,9.47,6.87,6.87,0,0,0,3.6,3,1.72,1.72,0,0,1,1,2.23,1.74,1.74,0,0,1-.33.54,7.08,7.08,0,0,0,.7,9.82,7,7,0,0,0,8.51.52,1.76,1.76,0,0,1,2.41.41,6,6,0,0,0,8.44,1.41,5.88,5.88,0,0,0,1-.91,1.74,1.74,0,0,1,2.45-.15,1.42,1.42,0,0,1,.22.21,5.23,5.23,0,0,0,7.32.85,5.49,5.49,0,0,0,1.56-2A1.72,1.72,0,0,1,49,79.45a1.84,1.84,0,0,1,.72.56,4.36,4.36,0,0,0,6.07.94,5.12,5.12,0,0,0,.49-.44,1.74,1.74,0,0,1,2.45,0c.07.07.11.13.17.2a6.93,6.93,0,0,0,11.81-1.09,1.74,1.74,0,0,1,2.32-.8,1.82,1.82,0,0,1,.8.8,6.93,6.93,0,0,0,13.17-3,7,7,0,0,0-.13-1.38,1.72,1.72,0,0,1,1.37-2,2.59,2.59,0,0,1,.41,0h.11a5.2,5.2,0,0,0,4.07-8.43,1.73,1.73,0,0,1,.28-2.43l.33-.21a6.92,6.92,0,0,0,3.29-9.23,7.28,7.28,0,0,0-1.69-2.26Z"/><path class="cls-1" d="M24.61,102.59l1.73,3.46h6.93l-1.73-3.46Z"/><path class="cls-1" d="M81.8,86.84V99.12H74.87V85.6A10.44,10.44,0,0,0,80.07,87,9.05,9.05,0,0,0,81.8,86.84Z"/><path class="cls-1" d="M74.87,102.59l1.73,3.46h6.93l-1.73-3.46Z"/></g></svg>