<svg xmlns="http://www.w3.org/2000/svg" viewBox="0 0 115 115"><defs><style>.cls-1{fill:#476c86;}</style></defs><g id="Layer_4" data-name="Layer 4"><path class="cls-1" d="M9.51,43.38h73V23.72H60.09V12.56H31.93V23.79H9.51ZM37.65,18.13c5.34,0,10.59,0,15.92,0,.7,0,.94.18.91.9,0,1.54,0,3.08,0,4.68H37.65Z"/><path class="cls-1" d="M60.09,49.12H32v5.49H26.32V49.12H9.56V74.28H66.13V57.45H82.56V49.12H65.69v5.49h-5.6Z"/><path class="cls-1" d="M37.73,80V91.19H32.15V80H21v22.4H82.73V80H71.49V91.17H65.86V80H60.28V91.17H54.64V80H49V91.17H43.36V80Z"/><path class="cls-1" d="M71.76,63.16v11.2H88.42v28.08h17V63.16Z"/><path class="cls-1" d="M97,30c-2.6,3.75-4.92,7.58-7.6,11.26-1.18,1.63-.74,3.27-.82,5H105.4c.15-2,.29-3.95-1.23-5.58a19.61,19.61,0,0,1-1.68-2.48Z"/><path class="cls-1" d="M105.43,51.91H88.64v5.53h16.79Z"/></g></svg>