<svg xmlns="http://www.w3.org/2000/svg" viewBox="0 0 115 115"><defs><style>.cls-1{fill:#476c86;}</style></defs><g id="Layer_4" data-name="Layer 4"><path class="cls-1" d="M57.5,8.85A17.2,17.2,0,1,0,74.6,26.14,17.28,17.28,0,0,0,57.5,8.85Z"/><path class="cls-1" d="M63.2,43.25H51.8a25.66,25.66,0,0,0-11.44,2.8A71.24,71.24,0,0,1,57.5,53.16a71.24,71.24,0,0,1,17.14-7.11A25.66,25.66,0,0,0,63.2,43.25Z"/><path class="cls-1" d="M100.45,60.35a5.7,5.7,0,0,0-5.7,5.7v11.4a5.7,5.7,0,1,0,11.4,0V66.05A5.7,5.7,0,0,0,100.45,60.35Z"/><path class="cls-1" d="M14.55,60.35a5.7,5.7,0,0,0-5.7,5.7v11.4a5.7,5.7,0,1,0,11.4,0V66.05A5.7,5.7,0,0,0,14.55,60.35Z"/><path class="cls-1" d="M17.4,49a2.85,2.85,0,0,0-2.85,2.85v2.85A11.41,11.41,0,0,1,26,66.05v11.4a11.42,11.42,0,0,1-11.4,11.41v2.85a2.86,2.86,0,0,0,2.85,2.85c14.62,0,26.3,4.61,37.25,11.59v-48C43.65,51.88,31.83,49,17.4,49Z"/><path class="cls-1" d="M100.45,54.65V51.8A2.85,2.85,0,0,0,97.6,49c-14.43,0-26.25,2.93-37.25,9.23v48C71.3,99.17,83,94.56,97.6,94.56a2.86,2.86,0,0,0,2.85-2.85V88.86a11.42,11.42,0,0,1-11.4-11.41V66.05A11.41,11.41,0,0,1,100.45,54.65Z"/></g></svg>