<svg xmlns="http://www.w3.org/2000/svg" viewBox="0 0 115 115"><defs><style>.cls-1{fill:#476c86;}</style></defs><g id="Layer_4" data-name="Layer 4"><path class="cls-1" d="M102.51,10.53H51.39a3.08,3.08,0,0,0-3.08,3.08V35.32l2.22-2.6a7.09,7.09,0,0,1,3.93-2.32V16.68h45V56.87h-45V50.15l-1.38,1.62a7.14,7.14,0,0,1-4.77,2.46V60A3.08,3.08,0,0,0,51.39,63H68l-8.44,38.29a3.18,3.18,0,1,0,6.22,1.37L74.51,63h5.07l8.74,39.66a3.18,3.18,0,0,0,3.1,2.5,3.23,3.23,0,0,0,.69-.07,3.19,3.19,0,0,0,2.43-3.8L86.1,63h16.41A3.07,3.07,0,0,0,105.58,60V13.61A3.08,3.08,0,0,0,102.51,10.53Z"/><path class="cls-1" d="M78.07,28.5a1.19,1.19,0,0,0-1.54-.67L58.4,34.23a4,4,0,0,0-5.45.55L47.2,41.5l-5.1-4.37a9.63,9.63,0,0,1,.11,1.08V47.7l2.84,2.43a4,4,0,0,0,5.61-.43l6.85-8L63,38.46,77.56,30A1.19,1.19,0,0,0,78.07,28.5Z"/><path class="cls-1" d="M31,30.2H27.6a8,8,0,0,0-6.37,3.21L10.74,43.06a4,4,0,0,0-.31,5.62L19,58.23a4,4,0,1,0,5.92-5.31L19,46.34l8.37-7.5-4.88,6.63,4.77,5.33a7.13,7.13,0,0,1-7.69,11.5s0,18.41,0,38.12a4.78,4.78,0,0,0,9.55,0V72h3.18v28.45a7.94,7.94,0,0,1-1,3.78A4.75,4.75,0,0,0,39,100.42C39,80.71,39,89,39,38.21A8,8,0,0,0,31,30.2Z"/><path class="cls-1" d="M25.06,27.34a9.3,9.3,0,0,0,13.55-8.23,9.31,9.31,0,1,0-13.55,8.23Z"/></g></svg>