<svg xmlns="http://www.w3.org/2000/svg" viewBox="0 0 115 115"><defs><style>.cls-1{fill:#476c86;}</style></defs><g id="Layer_4" data-name="Layer 4"><path class="cls-1" d="M113.76,78.59c-1.16,2.14-2.34,4.27-3.47,6.43-2,3.83-1.24,3.08-5.11,3.11-7.36,0-14.72,0-22.08,0H81.64V37.7C87.71,54.14,95,69.8,106.92,83.12l2.86-5.48c1.11-2.13,2.54-2.26,4-.37Z"/><path class="cls-1" d="M49.06,84.76c-.76-2.42-1.44-4.61-2.15-6.8a1.49,1.49,0,0,0-2.93.56,5.55,5.55,0,0,0,.25,1c.77,2.48,1.55,5,2.32,7.44.11.34.2.69.34,1.16H45.53q-19.74,0-39.47,0a2.13,2.13,0,0,1-2.29-1.61C3,84.19,2.18,81.92,1.4,79.63A1.92,1.92,0,0,1,2.52,77c1-.35,2,.19,2.43,1.45.55,1.5,1.07,3,1.69,4.75,1.32-1.45,2.57-2.72,3.7-4.1A87.27,87.27,0,0,0,22,60.09c3.4-7.33,6.41-14.83,9.55-22.28a6.56,6.56,0,0,0,.42-2.34c.05-2.16,0-4.32,0-6.49,0-1.32.7-2.13,1.82-2.15s1.92.8,1.93,2.17c0,2.05,0,4.09,0,6.24H75.31c-1.07,3-2,5.88-3.1,8.71-3.9,10.41-8.31,20.56-14.33,30a58.34,58.34,0,0,1-7.82,9.9Z"/><path class="cls-1" d="M77.77,38.21V88.08H50.19c0-.13,0-.25.08-.31,5.49-4.88,9.57-10.86,13.18-17.18A186,186,0,0,0,77.26,39l.27-.78Z"/></g></svg>