<svg xmlns="http://www.w3.org/2000/svg" viewBox="0 0 115 115"><defs><style>.cls-1{fill:#476c86;}</style></defs><g id="Layer_4" data-name="Layer 4"><path class="cls-1" d="M22.14,53.78V42.61a1.86,1.86,0,0,0,0-3.72,9.32,9.32,0,0,0-9.31,9.3v3.73a5.59,5.59,0,0,0,5.59,5.58h3.72a1.86,1.86,0,0,0,0-3.72Z"/><path class="cls-1" d="M92.86,38.89a1.86,1.86,0,0,0,0,3.72V53.78a1.86,1.86,0,0,0,0,3.72h3.72a5.59,5.59,0,0,0,5.59-5.58V48.19A9.32,9.32,0,0,0,92.86,38.89Z"/><path class="cls-1" d="M44.47,91a1.86,1.86,0,0,0-1.86,1.86H31.44a1.86,1.86,0,1,0-3.72,0v3.72a5.6,5.6,0,0,0,5.59,5.59h7.44a5.59,5.59,0,0,0,5.58-5.59V92.86A1.86,1.86,0,0,0,44.47,91Z"/><path class="cls-1" d="M85.42,91a1.86,1.86,0,0,0-1.86,1.86H72.39a1.86,1.86,0,0,0-3.72,0v3.72a5.59,5.59,0,0,0,5.58,5.59h7.44a5.6,5.6,0,0,0,5.59-5.59V92.86A1.86,1.86,0,0,0,85.42,91Z"/><path class="cls-1" d="M85.42,12.83H29.58a9.32,9.32,0,0,0-9.3,9.31V85.42a9.31,9.31,0,0,0,9.3,9.3H85.42a9.31,9.31,0,0,0,9.3-9.3V22.14A9.32,9.32,0,0,0,85.42,12.83ZM37,20.28H78a5.58,5.58,0,1,1,0,11.16H37a5.58,5.58,0,1,1,0-11.16Zm0,63.28A5.59,5.59,0,1,1,42.61,78,5.6,5.6,0,0,1,37,83.56Zm40.94,0A5.59,5.59,0,1,1,83.56,78,5.59,5.59,0,0,1,78,83.56Zm9.31-24.2a5.59,5.59,0,0,1-5.59,5.58H33.31a5.59,5.59,0,0,1-5.59-5.58V40.75a5.59,5.59,0,0,1,5.59-5.58H81.69a5.59,5.59,0,0,1,5.59,5.58V59.36Z"/></g></svg>