<svg xmlns="http://www.w3.org/2000/svg" viewBox="0 0 110 110"><defs><style>.cls-1{fill:#fff;}</style></defs><g id="Layer_4" data-name="Layer 4"><path class="cls-1" d="M92,13.17H49A1.94,1.94,0,0,0,47,15.11V30.22l2.15-1.33a5.48,5.48,0,0,1,1.73-.7V17.05H90V45H50.9V40.5L47,42.91V47A1.94,1.94,0,0,0,49,48.91H92A1.94,1.94,0,0,0,93.89,47V15.11A1.94,1.94,0,0,0,92,13.17Z"/><path class="cls-1" d="M63.74,23.94a1.48,1.48,0,0,0-2.09-.25L55,29a5.28,5.28,0,0,1,1.63,1.66,5.83,5.83,0,0,1,.32.6L63.5,26A1.49,1.49,0,0,0,63.74,23.94Z"/><circle class="cls-1" cx="31.49" cy="15.82" r="5.58"/><path class="cls-1" d="M54.3,32.05a2.68,2.68,0,0,0-3.71-.87l-5.45,3.39c0-4.53,0-2.13,0-5a6.4,6.4,0,0,0-6.38-6.35H36.08c-2.26,5.88-1.53,3.7-3.45,8.68l.8-3.52a1.08,1.08,0,0,0-.11-.77l-1.1-2,1-1.76a.4.4,0,0,0-.35-.59H30.18a.4.4,0,0,0-.35.59l1,1.77-1.1,2a1.13,1.13,0,0,0-.12.76l.7,3.53-3.35-8.68h-2.7a6.4,6.4,0,0,0-6.38,6.35l-.1,19.79A2.71,2.71,0,0,0,20.45,52h0a2.69,2.69,0,0,0,2.69-2.68l.1-19.8h0a.54.54,0,0,1,.54-.53.53.53,0,0,1,.53.53V57.6A9,9,0,0,1,30.79,60V49h1.4V61.55a9.07,9.07,0,0,1,.25,9.75,9.48,9.48,0,0,1,2.46.32,9.11,9.11,0,0,1,3.75-2c0-48.84-.06-18.64-.06-40.11a.57.57,0,0,1,.57-.57.56.56,0,0,1,.56.56c0,1.89,0,7.8.05,9.86a2.7,2.7,0,0,0,4.12,2.27l9.54-5.92A2.69,2.69,0,0,0,54.3,32.05Z"/><circle class="cls-1" cx="85.29" cy="66.69" r="5.91"/><path class="cls-1" d="M99.67,81.2a6.77,6.77,0,0,0-6.75-6.72H78.1a9,9,0,0,1-.32,8.8,9.92,9.92,0,0,1,7.9,4.53h7.09V81.27a.6.6,0,0,1,1.2,0h0l0,6.59h5.7Z"/><path class="cls-1" d="M61,78.6a8.92,8.92,0,0,1,1-4.18H48.9a9,9,0,0,1-.36,8.7,9.85,9.85,0,0,1,7.05,3,9.72,9.72,0,0,1,6.79-2.8A9,9,0,0,1,61,78.6Z"/><path class="cls-1" d="M56.54,60.71a5.91,5.91,0,1,0,5.91,5.91A5.92,5.92,0,0,0,56.54,60.71Z"/><path class="cls-1" d="M31.78,78.44a9,9,0,0,1,.95-4c-.26,0,.81,0-15.65,0a6.76,6.76,0,0,0-6.75,6.71l0,6.68H16l0-6.65a.6.6,0,0,1,.6-.59.59.59,0,0,1,.6.59v6.65h8a9.87,9.87,0,0,1,7.92-4.62A8.91,8.91,0,0,1,31.78,78.44Z"/><path class="cls-1" d="M24.71,60.71a5.91,5.91,0,1,0,5.91,5.91A5.92,5.92,0,0,0,24.71,60.71Z"/><path class="cls-1" d="M84.12,93.09a6.77,6.77,0,0,0-6.75-6.72h-15a6.93,6.93,0,0,0-6.94,6.72l0-.16a6.77,6.77,0,0,0-6.75-6.72h-15a6.94,6.94,0,0,0-6.95,6.72l0,6.83h5.7l0-6.8a.52.52,0,0,1,1,0v6.8h15.1V93a.55.55,0,0,1,1.1,0l0,6.8H61.15l0-6.65h0a.52.52,0,0,1,1,0v6.64h15.1V93.12a.55.55,0,0,1,.55-.55.56.56,0,0,1,.56.54l0,6.65h5.7Z"/><circle class="cls-1" cx="41" cy="78.42" r="5.98"/><circle class="cls-1" cx="70.05" cy="78.58" r="5.98"/></g></svg>