<svg xmlns="http://www.w3.org/2000/svg" viewBox="0 0 110 110"><defs><style>.cls-1{fill:#fff;}</style></defs><g id="Layer_4" data-name="Layer 4"><path class="cls-1" d="M54.32,9.89A15.82,15.82,0,1,0,70.05,25.8,15.9,15.9,0,0,0,54.32,9.89Z"/><path class="cls-1" d="M59.57,41.53H49.08a23.59,23.59,0,0,0-10.52,2.58,65.71,65.71,0,0,1,15.76,6.53,65.78,65.78,0,0,1,15.77-6.53A23.62,23.62,0,0,0,59.57,41.53Z"/><path class="cls-1" d="M93.82,57.26a5.25,5.25,0,0,0-5.24,5.24V73a5.25,5.25,0,0,0,10.49,0V62.5A5.25,5.25,0,0,0,93.82,57.26Z"/><path class="cls-1" d="M14.82,57.26A5.24,5.24,0,0,0,9.58,62.5V73a5.24,5.24,0,1,0,10.48,0V62.5A5.24,5.24,0,0,0,14.82,57.26Z"/><path class="cls-1" d="M17.44,46.77a2.62,2.62,0,0,0-2.62,2.62V52A10.5,10.5,0,0,1,25.31,62.5V73A10.51,10.51,0,0,1,14.82,83.48V86.1a2.62,2.62,0,0,0,2.62,2.62c13.44,0,24.19,4.25,34.26,10.66V55.27C41.59,49.47,30.71,46.77,17.44,46.77Z"/><path class="cls-1" d="M93.82,52V49.39a2.62,2.62,0,0,0-2.62-2.62c-13.27,0-24.14,2.7-34.26,8.5V99.38C67,93,77.76,88.72,91.2,88.72a2.62,2.62,0,0,0,2.62-2.62V83.48A10.5,10.5,0,0,1,83.34,73V62.5A10.49,10.49,0,0,1,93.82,52Z"/></g></svg>