<svg xmlns="http://www.w3.org/2000/svg" viewBox="0 0 110 110"><defs><style>.cls-1{fill:#fff;}</style></defs><g id="Layer_4" data-name="Layer 4"><path class="cls-1" d="M19.29,51.24V40a1.88,1.88,0,0,0,0-3.76,9.41,9.41,0,0,0-9.4,9.4v3.76A5.65,5.65,0,0,0,15.53,55h3.76a1.88,1.88,0,1,0,0-3.76Z"/><path class="cls-1" d="M90.71,36.2a1.88,1.88,0,1,0,0,3.76V51.24a1.88,1.88,0,1,0,0,3.76h3.76a5.65,5.65,0,0,0,5.64-5.64V45.6A9.41,9.41,0,0,0,90.71,36.2Z"/><path class="cls-1" d="M41.84,88.83A1.88,1.88,0,0,0,40,90.71H28.68a1.88,1.88,0,0,0-3.76,0v3.76a5.65,5.65,0,0,0,5.64,5.64h7.52a5.65,5.65,0,0,0,5.64-5.64V90.71A1.88,1.88,0,0,0,41.84,88.83Z"/><path class="cls-1" d="M83.2,88.83a1.88,1.88,0,0,0-1.88,1.88H70a1.88,1.88,0,0,0-3.76,0v3.76a5.65,5.65,0,0,0,5.64,5.64h7.52a5.65,5.65,0,0,0,5.64-5.64V90.71A1.89,1.89,0,0,0,83.2,88.83Z"/><path class="cls-1" d="M83.2,9.89H26.8a9.41,9.41,0,0,0-9.39,9.4V83.2a9.4,9.4,0,0,0,9.39,9.39H83.2a9.4,9.4,0,0,0,9.39-9.39V19.29A9.41,9.41,0,0,0,83.2,9.89ZM34.32,17.41H75.68a5.64,5.64,0,1,1,0,11.27H34.32a5.64,5.64,0,1,1,0-11.27Zm0,63.91A5.64,5.64,0,1,1,40,75.68,5.65,5.65,0,0,1,34.32,81.32Zm41.36,0a5.64,5.64,0,1,1,5.64-5.64A5.65,5.65,0,0,1,75.68,81.32Zm9.4-24.44a5.65,5.65,0,0,1-5.64,5.64H30.56a5.65,5.65,0,0,1-5.64-5.64V38.08a5.65,5.65,0,0,1,5.64-5.64H79.44a5.64,5.64,0,0,1,5.63,5.64v18.8Z"/></g></svg>